<?xml version="1.0" standalone="no"?>
<!DOCTYPE svg PUBLIC "-//W3C//DTD SVG 20010904//EN"
 "http://www.w3.org/TR/2001/REC-SVG-20010904/DTD/svg10.dtd">
<svg version="1.0" xmlns="http://www.w3.org/2000/svg"
 width="833.000000pt" height="833.000000pt" viewBox="0 0 833.000000 833.000000"
 preserveAspectRatio="xMidYMid meet">
<metadata>
Created by potrace 1.11, written by Peter Selinger 2001-2013
</metadata>
<g transform="translate(0.000000,833.000000) scale(0.100000,-0.100000)"
fill="#000000" stroke="none">
<path d="M15 6818 c-3 -7 -4 -357 -3 -778 l3 -765 1543 -3 c884 -1 1542 2
1542 7 0 5 -7 14 -16 22 -22 18 -51 78 -59 121 -15 81 3 112 413 683 l387 540
69 35 c62 32 77 35 150 35 60 -1 93 -6 126 -21 25 -12 164 -102 310 -201 146
-98 418 -282 605 -407 187 -125 358 -246 379 -269 21 -23 51 -67 65 -97 23
-48 26 -68 26 -155 0 -90 -3 -105 -29 -155 -15 -30 -47 -74 -69 -98 l-42 -43
109 3 110 3 8 30 c4 17 14 90 22 164 9 73 18 136 20 139 3 2 35 -24 71 -59
l65 -64 7 -108 6 -107 1241 2 1241 3 0 775 0 775 -4148 3 c-3313 2 -4149 0
-4152 -10z m6496 -135 c104 -36 180 -85 256 -166 116 -124 169 -269 160 -437
-9 -160 -63 -278 -181 -395 -120 -118 -269 -178 -441 -178 -493 2 -787 532
-519 935 85 128 233 229 384 263 100 23 237 14 341 -22z"/>
<path d="M4065 6038 c5 -12 -61 -98 -237 -310 -134 -161 -274 -330 -311 -375
l-68 -83 413 0 413 0 105 105 105 105 123 -105 124 -105 115 0 c107 0 114 1
102 17 -8 9 -202 175 -431 370 -230 194 -427 363 -438 376 -15 15 -19 17 -15
5z"/>
<path d="M10 4165 l0 -775 4155 0 4155 0 0 775 0 775 -4155 0 -4155 0 0 -775z"/>
<path d="M15 3048 c-3 -7 -4 -357 -3 -778 l3 -765 4150 0 4150 0 0 775 0 775
-1466 3 -1466 2 -7 -37 c-16 -97 -93 -200 -179 -242 -23 -11 -366 -117 -762
-236 -396 -119 -758 -230 -805 -246 -190 -66 -352 -12 -429 143 -26 51 -31 73
-31 133 0 125 65 223 185 279 28 13 167 63 310 112 l260 89 -318 3 c-175 1
-324 -1 -332 -5 -11 -7 -622 -565 -1356 -1240 -237 -218 -267 -236 -389 -237
-66 -1 -84 3 -143 32 -154 76 -218 250 -146 400 17 34 87 110 257 277 189 185
418 429 705 753 l20 22 -1102 0 c-872 0 -1103 -3 -1106 -12z"/>
</g>
</svg>
