<?xml version="1.0" encoding="UTF-8" standalone="no"?>
<svg
   xmlns:dc="http://purl.org/dc/elements/1.1/"
   xmlns:cc="http://creativecommons.org/ns#"
   xmlns:rdf="http://www.w3.org/1999/02/22-rdf-syntax-ns#"
   xmlns:svg="http://www.w3.org/2000/svg"
   xmlns="http://www.w3.org/2000/svg"
   xmlns:sodipodi="http://sodipodi.sourceforge.net/DTD/sodipodi-0.dtd"
   xmlns:inkscape="http://www.inkscape.org/namespaces/inkscape"
   inkscape:version="1.0 (4035a4fb49, 2020-05-01)"
   sodipodi:docname="logo_text.svg"
   id="svg106"
   viewBox="0 0 135.20891 33.85842"
   version="1.1"
   height="127.9717"
   width="511.03223">
  <defs
     id="defs110" />
  <sodipodi:namedview
     inkscape:current-layer="svg106"
     inkscape:window-maximized="1"
     inkscape:window-y="-8"
     inkscape:window-x="-8"
     inkscape:cy="63.17938"
     inkscape:cx="250"
     inkscape:zoom="2.098"
     showgrid="false"
     id="namedview108"
     inkscape:window-height="1017"
     inkscape:window-width="1920"
     inkscape:pageshadow="2"
     inkscape:pageopacity="0"
     guidetolerance="10"
     gridtolerance="10"
     objecttolerance="10"
     borderopacity="1"
     bordercolor="#666666"
     pagecolor="#ffffff" />
  <metadata
     id="metadata2">
    <rdf:RDF>
      <cc:Work
         rdf:about="">
        <dc:format>image/svg+xml</dc:format>
        <dc:type
           rdf:resource="http://purl.org/dc/dcmitype/StillImage" />
        <dc:title></dc:title>
      </cc:Work>
    </rdf:RDF>
  </metadata>
  <g
     id="g82"
     transform="translate(-0.32128,-9.0904641)">
    <rect
       id="rect4"
       stroke-width="0.30432"
       fill="#102542"
       height="9.7328997"
       width="52.160999"
       y="32.789001"
       x="0.32128" />
    <rect
       id="rect6"
       stroke-width="0.30432"
       fill="#102542"
       height="9.7328997"
       width="52.160999"
       y="9.0902996"
       x="0.32128" />
    <g
       id="g26"
       aria-label="run it down"
       stroke-width="0.22803"
       fill="#ffffff"
       transform="matrix(1.0206,0,0,1.1139,-1.6038,-1.4403)">
      <path
         id="path8"
         d="m 3.54,27.742 v -4.8946 h 0.97982 l 0.15143,0.74822 q 0.481,-0.77049 1.394,-0.77049 0.19151,0 0.31176,0.01781 L 6.359195,23.8183 q -0.17815,-0.02672 -0.36966,-0.02672 -0.64579,0 -0.96646,0.34294 -0.31621,0.34294 -0.31621,0.95309 v 2.6544 z" />
      <path
         id="path10"
         d="m 10.63,27.359 q -0.58344,0.47655 -1.5365,0.47655 -0.95309,0 -1.5365,-0.47655 -0.57898,-0.47655 -0.57898,-1.3985 v -3.1131 h 1.1713 v 3.0686 q 0,0.54781 0.22714,0.79276 0.23159,0.24495 0.73041,0.24495 0.48991,0 0.71259,-0.2405 0.22714,-0.24496 0.22714,-0.79722 v -3.0686 h 1.1669 v 3.1131 q 0,0.91746 -0.58344,1.3985 z" />
      <path
         id="path12"
         d="m 12.283,27.742 v -4.8946 h 0.93973 l 0.12916,0.61906 q 0.74822,-0.73932 1.6612,-0.73932 0.85511,0 1.2782,0.49436 0.42756,0.48991 0.42756,1.4252 v 3.0953 h -1.1713 v -2.9528 q -0.0045,-0.59234 -0.19151,-0.88629 -0.18706,-0.29394 -0.67251,-0.29394 -0.37857,0 -0.69478,0.19596 -0.31176,0.19151 -0.45428,0.48546 -0.08462,0.34739 -0.08462,1.0689 v 2.3827 z" />
      <path
         id="path14"
         d="m 20.308,27.742 v -4.8946 h 1.1669 v 4.8946 z m 0,-5.6072 v -0.99763 h 1.1713 v 0.99763 z" />
      <path
         id="path16"
         d="m 24.642,27.809 q -0.49882,0 -0.83284,-0.1158 -0.32958,-0.12025 -0.51663,-0.37411 -0.18706,-0.25386 -0.26722,-0.5968 Q 22.9496,26.3749 22.9496,25.86718 v -2.3115 h -0.80167 l 0.04454,-0.63243 0.8373,-0.07571 0.37411,-1.3272 0.71259,-0.0045 v 1.3317 h 1.2159 v 0.70814 h -1.2159 v 2.3337 q 0,0.55671 0.16033,0.79276 0.16033,0.23605 0.59234,0.23605 0.25386,0 0.54335,-0.04454 l 0.03118,0.8373 q -0.0089,0 -0.11134,0.02227 -0.09798,0.01782 -0.19151,0.03118 -0.08907,0.01781 -0.23159,0.03118 -0.14252,0.01336 -0.26722,0.01336 z" />
      <path
         id="path18"
         d="m 30.494,27.836 q -0.95755,0 -1.5054,-0.70369 -0.54781,-0.70369 -0.54781,-1.8795 0,-1.1402 0.54335,-1.8305 0.54781,-0.69478 1.5054,-0.69478 1.0422,0 1.4742,0.73932 Q 31.9192,23.03039 31.9192,22.6251 V 21.044 l 1.1669,-0.07571 v 6.7741 h -1.011 l -0.12916,-0.66806 q -0.07571,0.12025 -0.14252,0.20932 -0.06235,0.08462 -0.18706,0.20042 -0.1247,0.11134 -0.27168,0.1826 -0.14252,0.0668 -0.3652,0.1158 -0.21823,0.05344 -0.48546,0.05344 z m 0.27613,-0.88629 q 1.1758,0 1.1936,-1.5989 0,-0.9041 -0.30285,-1.3183 -0.30285,-0.4142 -0.9041,-0.4142 -0.52554,0 -0.84175,0.4231 -0.31176,0.41865 -0.31176,1.2381 0,0.81503 0.31176,1.2426 0.31621,0.42756 0.85511,0.42756 z" />
      <path
         id="path20"
         d="m 36.417,26.949 q 0.59234,0 0.89074,-0.43201 0.2984,-0.43201 0.2984,-1.2381 0,-0.81503 -0.2984,-1.2426 -0.2984,-0.42756 -0.89965,-0.42756 -0.59234,0 -0.8952,0.43201 -0.2984,0.42756 -0.2984,1.2426 0,0.80167 0.30285,1.2337 0.30285,0.43203 0.89965,0.43201 z m -0.03117,0.88629 q -1.0867,0 -1.7102,-0.70369 -0.62352,-0.70369 -0.62352,-1.8527 0,-1.1847 0.62352,-1.8661 0.62352,-0.68587 1.7592,-0.68587 1.0956,0 1.7147,0.69923 0.62352,0.69478 0.62352,1.8527 0,1.1713 -0.62797,1.8661 -0.62797,0.69033 -1.7592,0.69033 z" />
      <path
         id="path22"
         d="m 40.631,27.742 -1.4831,-4.8946 h 1.1891 l 0.93973,3.5897 q 0.03118,-0.10244 0.50772,-1.7503 0.47655,-1.6479 0.5389,-1.8394 h 1.198 q 0.0579,0.18706 0.51218,1.8216 0.45428,1.6345 0.48991,1.7548 l 0.96646,-3.5763 h 1.1713 l -1.5321,4.8946 h -1.1624 q -0.0579,-0.19151 -0.54335,-1.9374 -0.481,-1.7459 -0.52108,-1.8839 -0.08907,0.32512 -0.57008,1.9596 -0.47655,1.6345 -0.55226,1.8617 z" />
      <path
         id="path24"
         d="m 47.307,27.742 v -4.8946 h 0.93973 l 0.12916,0.61906 q 0.74822,-0.73932 1.6612,-0.73932 0.85511,0 1.2782,0.49436 0.42756,0.48991 0.42756,1.4252 v 3.0953 h -1.1713 v -2.9528 q -0.0045,-0.59234 -0.19151,-0.88629 -0.18706,-0.29394 -0.67251,-0.29394 -0.37857,0 -0.69478,0.19596 -0.31176,0.19151 -0.45428,0.48546 -0.08462,0.34739 -0.08462,1.0689 v 2.3827 z" />
    </g>
    <g
       id="g80"
       fill="#ffffff"
       transform="matrix(0.9988,0,0,0.9988,-15.934,-3.5339)">
      <g
         id="g78"
         fill="#ffffff">
        <path
           id="path28"
           d="m 58.681,17.982 a 3.9499,3.8459 0 0 1 -3.9499,3.8459 3.9499,3.8459 0 0 1 -3.9499,-3.8459 3.9499,3.8459 0 0 1 3.9499,-3.8459 3.9499,3.8459 0 0 1 3.9499,3.8459" />
        <path
           id="path30"
           d="m 50.081,21.403 a 2.3624,2.3624 0 0 1 -2.3624,2.3624 2.3624,2.3624 0 0 1 -2.3624,-2.3624 2.3624,2.3624 0 0 1 2.3624,-2.3624 2.3624,2.3624 0 0 1 2.3624,2.3624" />
        <path
           id="path32"
           d="M 37.328,22.127 A 1.6315,1.5271 0 0 1 35.6965,23.6541 1.6315,1.5271 0 0 1 34.065,22.127 1.6315,1.5271 0 0 1 35.6965,20.5999 1.6315,1.5271 0 0 1 37.328,22.127" />
        <path
           id="path34"
           d="m 26.742,44.578 a 2.0316,1.9608 0 0 1 -2.0316,1.9608 2.0316,1.9608 0 0 1 -2.0316,-1.9608 2.0316,1.9608 0 0 1 2.0316,-1.9608 2.0316,1.9608 0 0 1 2.0316,1.9608" />
        <path
           id="path36"
           d="m 39.026,40.207 a 2.0316,1.9608 0 0 1 -2.0316,1.9608 2.0316,1.9608 0 0 1 -2.0316,-1.9608 2.0316,1.9608 0 0 1 2.0316,-1.9608 2.0316,1.9608 0 0 1 2.0316,1.9608" />
        <path
           id="path38"
           d="m 59.862,30.025 a 1.6773,1.6064 0 0 1 -1.6773,1.6064 1.6773,1.6064 0 0 1 -1.6773,-1.6064 1.6773,1.6064 0 0 1 1.6773,-1.6064 1.6773,1.6064 0 0 1 1.6773,1.6064" />
        <path
           id="path40"
           d="m 40.396,29.695 a 1.8663,2.5041 0 0 1 -1.8663,2.5041 1.8663,2.5041 0 0 1 -1.8663,-2.5041 1.8663,2.5041 0 0 1 1.8663,-2.5041 1.8663,2.5041 0 0 1 1.8663,2.5041" />
        <path
           id="path42"
           d="m 34.349,21.273 4.5057,-6.3059 1.8709,3.5747 -3.7418,4.5102 z" />
        <path
           id="path44"
           d="m 42.371,15.699 a 1.8677,1.5536 0 0 1 -1.8677,1.5536 1.8677,1.5536 0 0 1 -1.8677,-1.5536 1.8677,1.5536 0 0 1 1.8677,-1.5536 1.8677,1.5536 0 0 1 1.8677,1.5536" />
        <path
           id="path46"
           d="m 41.636,14.469 7.2524,4.8783 -2.9352,3.6208 -5.2285,-4.4267 -0.95215,-1.3865 z" />
        <path
           id="path48"
           d="m 37.405,27.696 5.8799,-5.7797 3.107,2.656 2.2217,2.1382 -4.8443,3.5914 z" />
        <path
           id="path50"
           d="M 48.971,36.9 A 2.0316,2.2447 0 0 1 46.9394,39.1447 2.0316,2.2447 0 0 1 44.9078,36.9 2.0316,2.2447 0 0 1 46.9394,34.6553 2.0316,2.2447 0 0 1 48.971,36.9" />
        <path
           id="path52"
           d="m 37.812,32.013 8.4572,6.2602 2.197,-2.8584 -4.7059,-5.11 -3.586,-1.8117 z" />
        <path
           id="path54"
           d="m 36.302,38.348 7.1349,-2.4576 4.1158,3.1481 -10.012,3.0193 z" />
        <path
           id="path56"
           d="m 52.184,29.943 a 1.695,1.7363 0 0 1 -1.695,1.7363 1.695,1.7363 0 0 1 -1.695,-1.7363 1.695,1.7363 0 0 1 1.695,-1.7363 1.695,1.7363 0 0 1 1.695,1.7363" />
        <path
           id="path58"
           d="m 50.384,31.676 7.8471,-0.04734 -0.12769,-3.2066 -6.1987,-0.13016 -0.95186,-1.7039 z" />
        <path
           id="path60"
           d="m 50.953,26.588 -3.2204,2.2596 1.3312,2.034 2.3895,-2.7533 z" />
        <path
           id="path62"
           d="m 26.087,46.018 3.7827,-3.4802 -3.8295,-2.052 -2.7829,2.7223 z" />
        <path
           id="path64"
           d="m 29.87,42.538 8.5939,-7.8772 -4.1341,-3.3734 -8.2893,9.1987 0.31871,2.6084 z" />
        <path
           id="path66"
           d="m 38.464,34.66 0.47403,-0.45827 c 0,0 -1.4382,-0.63142 -2.4906,-2.058 -1.0524,-1.4266 -0.81851,-2.21 -0.81851,-2.21 l -1.299,1.3528 1.1353,2.6111 z" />
        <path
           id="path68"
           d="m 46.352,24.532 c 0,0 0.62012,0.62838 1.7942,0.32246 1.1741,-0.30592 1.5379,-0.66973 1.5379,-0.66973 0,0 0.52917,-0.47129 0.71934,-0.71934 0.19017,-0.24805 0.35553,-2.3978 0.35553,-2.3978 0,0 0.83509,0.50436 0.91777,1.017 0.08268,0.51263 0.17363,1.3973 0,1.7281 -0.17363,0.33073 -1.0087,1.3229 -1.1576,1.4387 -0.14883,0.11576 -1.9051,1.4591 -1.9051,1.4591 l -1.733,-0.07001 z" />
        <path
           id="path70"
           d="m 46.186,24.383 c 0,0 0.30592,0.45475 1.4635,0.37207 1.1576,-0.08268 2.0174,-0.59531 2.0174,-0.59531 l 0.89297,1.141 -1.9464,1.4095 -1.4601,-0.40074 z" />
        <path
           id="path72"
           d="m 50.56,25.301 c 0,0 1.1581,-0.85063 1.1581,-1.4353 0,-0.58467 0.0058,-1.333 0.0058,-1.333 L 50.806,22.32223 c 0,0 0.09354,0.64312 -0.28648,1.0524 -0.38002,0.40926 -0.85254,0.78538 -0.85254,0.78538 l -0.04783,0.71134 z" />
        <path
           id="path74"
           d="m 50.56,25.301 c 0,0 1.1874,-0.79216 1.1756,-1.7802 l -0.01175,-0.98806 -0.9179,-0.21047 c 0,0 -0.22212,1.2044 -0.61969,1.4909 -0.39756,0.28648 -0.51928,0.34689 -0.51928,0.34689 l -0.08291,0.58856 z" />
        <path
           id="path76"
           d="m 50.806,22.322 0.0936,-1.1284 0.78928,0.72497 0.03502,0.61388 -0.57875,0.3391 z" />
      </g>
    </g>
  </g>
  <rect
     id="rect84"
     stroke-width="0.30432"
     fill="#ff1654"
     height="9.7328997"
     width="52.160999"
     y="11.947836"
     x="0.12644" />
  <g
     id="g104"
     aria-label="run it down"
     stroke-width="0.22803"
     stroke="#333333"
     fill="#ffffff"
     transform="matrix(1.6175,0,0,1.7654,50.801268,-27.560164)">
    <path
       id="path86"
       d="m 3.54,27.742 v -4.8946 h 0.97982 l 0.15143,0.74822 q 0.481,-0.77049 1.394,-0.77049 0.19151,0 0.31176,0.01781 L 6.359195,23.8183 q -0.17815,-0.02672 -0.36966,-0.02672 -0.64579,0 -0.96646,0.34294 -0.31621,0.34294 -0.31621,0.95309 v 2.6544 z" />
    <path
       id="path88"
       d="m 10.63,27.359 q -0.58344,0.47655 -1.5365,0.47655 -0.95309,0 -1.5365,-0.47655 -0.57898,-0.47655 -0.57898,-1.3985 v -3.1131 h 1.1713 v 3.0686 q 0,0.54781 0.22714,0.79276 0.23159,0.24495 0.73041,0.24495 0.48991,0 0.71259,-0.2405 0.22714,-0.24496 0.22714,-0.79722 v -3.0686 h 1.1669 v 3.1131 q 0,0.91746 -0.58344,1.3985 z" />
    <path
       id="path90"
       d="m 12.283,27.742 v -4.8946 h 0.93973 l 0.12916,0.61906 q 0.74822,-0.73932 1.6612,-0.73932 0.85511,0 1.2782,0.49436 0.42756,0.48991 0.42756,1.4252 v 3.0953 h -1.1713 v -2.9528 q -0.0045,-0.59234 -0.19151,-0.88629 -0.18706,-0.29394 -0.67251,-0.29394 -0.37857,0 -0.69478,0.19596 -0.31176,0.19151 -0.45428,0.48546 -0.08462,0.34739 -0.08462,1.0689 v 2.3827 z" />
    <path
       id="path92"
       d="m 20.308,27.742 v -4.8946 h 1.1669 v 4.8946 z m 0,-5.6072 v -0.99763 h 1.1713 v 0.99763 z" />
    <path
       id="path94"
       d="m 24.642,27.809 q -0.49882,0 -0.83284,-0.1158 -0.32958,-0.12025 -0.51663,-0.37411 -0.18706,-0.25386 -0.26722,-0.5968 Q 22.9496,26.3749 22.9496,25.86718 v -2.3115 h -0.80167 l 0.04454,-0.63243 0.8373,-0.07571 0.37411,-1.3272 0.71259,-0.0045 v 1.3317 h 1.2159 v 0.70814 h -1.2159 v 2.3337 q 0,0.55671 0.16033,0.79276 0.16033,0.23605 0.59234,0.23605 0.25386,0 0.54335,-0.04454 l 0.03118,0.8373 q -0.0089,0 -0.11134,0.02227 -0.09798,0.01782 -0.19151,0.03118 -0.08907,0.01781 -0.23159,0.03118 -0.14252,0.01336 -0.26722,0.01336 z" />
    <path
       id="path96"
       d="m 30.494,27.836 q -0.95755,0 -1.5054,-0.70369 -0.54781,-0.70369 -0.54781,-1.8795 0,-1.1402 0.54335,-1.8305 0.54781,-0.69478 1.5054,-0.69478 1.0422,0 1.4742,0.73932 Q 31.9192,23.03039 31.9192,22.6251 V 21.044 l 1.1669,-0.07571 v 6.7741 h -1.011 l -0.12916,-0.66806 q -0.07571,0.12025 -0.14252,0.20932 -0.06235,0.08462 -0.18706,0.20042 -0.1247,0.11134 -0.27168,0.1826 -0.14252,0.0668 -0.3652,0.1158 -0.21823,0.05344 -0.48546,0.05344 z m 0.27613,-0.88629 q 1.1758,0 1.1936,-1.5989 0,-0.9041 -0.30285,-1.3183 -0.30285,-0.4142 -0.9041,-0.4142 -0.52554,0 -0.84175,0.4231 -0.31176,0.41865 -0.31176,1.2381 0,0.81503 0.31176,1.2426 0.31621,0.42756 0.85511,0.42756 z" />
    <path
       id="path98"
       d="m 36.417,26.949 q 0.59234,0 0.89074,-0.43201 0.2984,-0.43201 0.2984,-1.2381 0,-0.81503 -0.2984,-1.2426 -0.2984,-0.42756 -0.89965,-0.42756 -0.59234,0 -0.8952,0.43201 -0.2984,0.42756 -0.2984,1.2426 0,0.80167 0.30285,1.2337 0.30285,0.43203 0.89965,0.43201 z m -0.03117,0.88629 q -1.0867,0 -1.7102,-0.70369 -0.62352,-0.70369 -0.62352,-1.8527 0,-1.1847 0.62352,-1.8661 0.62352,-0.68587 1.7592,-0.68587 1.0956,0 1.7147,0.69923 0.62352,0.69478 0.62352,1.8527 0,1.1713 -0.62797,1.8661 -0.62797,0.69033 -1.7592,0.69033 z" />
    <path
       id="path100"
       d="m 40.631,27.742 -1.4831,-4.8946 h 1.1891 l 0.93973,3.5897 q 0.03118,-0.10244 0.50772,-1.7503 0.47655,-1.6479 0.5389,-1.8394 h 1.198 q 0.0579,0.18706 0.51218,1.8216 0.45428,1.6345 0.48991,1.7548 l 0.96646,-3.5763 h 1.1713 l -1.5321,4.8946 h -1.1624 q -0.0579,-0.19151 -0.54335,-1.9374 -0.481,-1.7459 -0.52108,-1.8839 -0.08907,0.32512 -0.57008,1.9596 -0.47655,1.6345 -0.55226,1.8617 z" />
    <path
       id="path102"
       d="m 47.307,27.742 v -4.8946 h 0.93973 l 0.12916,0.61906 q 0.74822,-0.73932 1.6612,-0.73932 0.85511,0 1.2782,0.49436 0.42756,0.48991 0.42756,1.4252 v 3.0953 h -1.1713 v -2.9528 q -0.0045,-0.59234 -0.19151,-0.88629 -0.18706,-0.29394 -0.67251,-0.29394 -0.37857,0 -0.69478,0.19596 -0.31176,0.19151 -0.45428,0.48546 -0.08462,0.34739 -0.08462,1.0689 v 2.3827 z" />
  </g>
</svg>
