<?xml version="1.0" encoding="UTF-8" standalone="no"?>
<svg
   xmlns:dc="http://purl.org/dc/elements/1.1/"
   xmlns:cc="http://creativecommons.org/ns#"
   xmlns:rdf="http://www.w3.org/1999/02/22-rdf-syntax-ns#"
   xmlns:svg="http://www.w3.org/2000/svg"
   xmlns="http://www.w3.org/2000/svg"
   xmlns:sodipodi="http://sodipodi.sourceforge.net/DTD/sodipodi-0.dtd"
   xmlns:inkscape="http://www.inkscape.org/namespaces/inkscape"
   inkscape:export-ydpi="100"
   inkscape:export-xdpi="100"
   inkscape:export-filename="C:\Users\ducvo\Desktop\logo.png"
   sodipodi:docname="200x200_logo.svg"
   inkscape:version="1.0 (4035a4fb49, 2020-05-01)"
   id="svg855"
   version="1.1"
   viewBox="0 0 52.160717 33.432005"
   height="126.35719"
   width="197.14287">
  <defs
     id="defs849">
    <clipPath
       id="clipPath1728"
       clipPathUnits="userSpaceOnUse">
      <g
         inkscape:label="Clip"
         id="use1730"
         style="fill:#000000;fill-opacity:1">
        <ellipse
           ry="3.8459096"
           rx="3.949851"
           cy="17.982216"
           cx="54.730953"
           id="ellipse862"
           style="fill:#000000;fill-opacity:1;stroke-width:0.264583" />
        <circle
           r="2.3623512"
           cy="21.402901"
           cx="47.71949"
           id="circle864"
           style="fill:#000000;fill-opacity:1;stroke-width:0.32204" />
        <ellipse
           ry="1.5270531"
           rx="1.6314553"
           style="fill:#000000;fill-opacity:1;stroke-width:0.215169"
           id="ellipse866"
           cx="35.696552"
           cy="22.126755" />
        <ellipse
           cy="44.577568"
           cx="24.710192"
           id="ellipse868"
           style="fill:#000000;fill-opacity:1;stroke-width:0.272081"
           rx="2.0316219"
           ry="1.9607514" />
        <ellipse
           ry="1.9607514"
           rx="2.0316219"
           style="fill:#000000;fill-opacity:1;stroke-width:0.272082"
           id="ellipse870"
           cx="36.994419"
           cy="40.207218" />
        <ellipse
           cy="30.025484"
           cx="58.184711"
           id="ellipse872"
           style="fill:#000000;fill-opacity:1;stroke-width:0.223766"
           rx="1.6772692"
           ry="1.6063987" />
        <ellipse
           cy="29.694756"
           cx="38.529949"
           id="ellipse874"
           style="fill:#000000;fill-opacity:1;stroke-width:0.294699"
           rx="1.8662573"
           ry="2.5040922" />
        <path
           id="path876"
           d="m 34.348586,21.272972 4.505722,-6.305879 1.870885,3.57473 -3.741772,4.510173 z"
           style="fill:#000000;fill-opacity:1;stroke:none;stroke-width:0.264583px;stroke-linecap:butt;stroke-linejoin:miter;stroke-opacity:1" />
        <ellipse
           cy="15.69948"
           cx="40.503147"
           id="ellipse878"
           style="fill:#000000;fill-opacity:1;stroke-width:0.232216"
           rx="1.8676906"
           ry="1.5536295" />
        <path
           id="path880"
           d="m 41.636439,14.469401 7.252419,4.878255 -2.935205,3.620819 -5.22846,-4.426652 -0.952146,-1.38646 z"
           style="fill:#000000;fill-opacity:1;stroke:none;stroke-width:0.264583px;stroke-linecap:butt;stroke-linejoin:miter;stroke-opacity:1" />
        <path
           id="path882"
           d="m 37.405206,27.695803 5.879928,-5.779702 3.10701,2.655991 2.221677,2.138157 -4.844261,3.591433 z"
           style="fill:#000000;fill-opacity:1;stroke:none;stroke-width:0.264583px;stroke-linecap:butt;stroke-linejoin:miter;stroke-opacity:1" />
        <ellipse
           cy="36.899902"
           cx="46.939209"
           id="ellipse884"
           style="fill:#000000;fill-opacity:1;stroke-width:0.291119"
           rx="2.0316219"
           ry="2.2447252" />
        <path
           id="path886"
           d="m 37.812383,32.01281 8.457216,6.260233 2.196989,-2.858445 -4.705887,-5.109964 -3.585967,-1.811726 z"
           style="fill:#000000;fill-opacity:1;stroke:none;stroke-width:0.264583px;stroke-linecap:butt;stroke-linejoin:miter;stroke-opacity:1" />
        <path
           id="path888"
           d="m 36.301702,38.348409 7.134876,-2.457592 4.115822,3.148059 -10.012414,3.019327 z"
           style="fill:#000000;fill-opacity:1;stroke:none;stroke-width:0.263153px;stroke-linecap:butt;stroke-linejoin:miter;stroke-opacity:1" />
        <ellipse
           ry="1.736328"
           rx="1.6949869"
           style="fill:#000000;fill-opacity:1;stroke-width:0.233864"
           id="ellipse890"
           cx="50.489346"
           cy="29.942802" />
        <path
           id="path892"
           d="m 50.384092,31.676245 7.847064,-0.04734 -0.127687,-3.206614 -6.19872,-0.130157 -0.951861,-1.703883 z"
           style="fill:#000000;fill-opacity:1;stroke:none;stroke-width:0.262523px;stroke-linecap:butt;stroke-linejoin:miter;stroke-opacity:1" />
        <path
           id="path894"
           d="m 50.952886,26.588251 -3.2204,2.2596 1.331185,2.033985 2.389518,-2.753321 z"
           style="fill:#000000;fill-opacity:1;stroke:none;stroke-width:0.264583px;stroke-linecap:butt;stroke-linejoin:miter;stroke-opacity:1" />
        <path
           id="path896"
           d="m 26.087176,46.017756 3.7827,-3.480158 -3.829472,-2.051952 -2.782944,2.722333 z"
           style="fill:#000000;fill-opacity:1;stroke:none;stroke-width:0.264195px;stroke-linecap:butt;stroke-linejoin:miter;stroke-opacity:1" />
        <path
           id="path898"
           d="m 29.869876,42.537596 8.593926,-7.87718 -4.134115,-3.373437 -8.289283,9.198665 0.31871,2.608366 z"
           style="fill:#000000;fill-opacity:1;stroke:none;stroke-width:0.264583px;stroke-linecap:butt;stroke-linejoin:miter;stroke-opacity:1" />
        <path
           id="path900"
           d="m 38.463802,34.660416 0.474027,-0.458269 c 0,0 -1.438243,-0.631425 -2.490618,-2.057976 -1.052375,-1.426552 -0.818512,-2.209986 -0.818512,-2.209986 l -1.299012,1.352794 1.135309,2.611149 z"
           style="fill:#000000;fill-opacity:1;stroke:none;stroke-width:0.264583px;stroke-linecap:butt;stroke-linejoin:miter;stroke-opacity:1" />
        <path
           id="path902"
           d="m 46.351692,24.531836 c 0,0 0.620117,0.628385 1.794206,0.322461 1.174088,-0.305925 1.53789,-0.669727 1.53789,-0.669727 0,0 0.529167,-0.471289 0.719336,-0.719336 0.19017,-0.248047 0.355534,-2.397786 0.355534,-2.397786 0,0 0.835091,0.504362 0.917774,1.016992 0.08268,0.51263 0.173632,1.397331 0,1.72806 -0.173633,0.330729 -1.008724,1.322916 -1.157552,1.438672 -0.148829,0.115755 -1.905059,1.459076 -1.905059,1.459076 l -1.732962,-0.07001 z"
           style="fill:#000000;fill-opacity:1;stroke:none;stroke-width:0.264583px;stroke-linecap:butt;stroke-linejoin:miter;stroke-opacity:1" />
        <path
           id="path904"
           d="m 46.186328,24.383008 c 0,0 0.305924,0.454752 1.463476,0.37207 1.157552,-0.08268 2.017448,-0.595313 2.017448,-0.595313 l 0.892969,1.141016 -1.9464,1.409467 -1.460111,-0.400743 z"
           style="fill:#000000;fill-opacity:1;stroke:none;stroke-width:0.264583px;stroke-linecap:butt;stroke-linejoin:miter;stroke-opacity:1" />
        <path
           id="path906"
           d="m 50.560221,25.300781 c 0,0 1.158102,-0.850631 1.158102,-1.435283 0,-0.584652 0.0058,-1.333007 0.0058,-1.333007 L 50.80622,22.322017 c 0,0 0.09354,0.643117 -0.28648,1.052373 -0.380024,0.409257 -0.852535,0.785375 -0.852535,0.785375 l -0.04783,0.711335 z"
           style="fill:#000000;fill-opacity:1;stroke:none;stroke-width:0.264583px;stroke-linecap:butt;stroke-linejoin:miter;stroke-opacity:1" />
        <path
           id="path908"
           d="m 50.560221,25.300781 c 0,0 1.187384,-0.792165 1.175641,-1.780228 -0.01175,-0.988062 -0.01175,-0.988062 -0.01175,-0.988062 l -0.917903,-0.210474 c 0,0 -0.222121,1.204383 -0.619686,1.490862 -0.397563,0.28648 -0.519282,0.346886 -0.519282,0.346886 l -0.08291,0.588558 z"
           style="fill:#000000;fill-opacity:1;stroke:none;stroke-width:0.264583px;stroke-linecap:butt;stroke-linejoin:miter;stroke-opacity:1" />
        <path
           id="path910"
           d="m 50.806209,22.322017 0.0936,-1.128379 0.789281,0.724969 0.03502,0.613884 -0.578747,0.339099 z"
           style="fill:#000000;fill-opacity:1;stroke:none;stroke-width:0.264583px;stroke-linecap:butt;stroke-linejoin:miter;stroke-opacity:1" />
      </g>
    </clipPath>
  </defs>
  <sodipodi:namedview
     inkscape:window-maximized="1"
     inkscape:window-y="-8"
     inkscape:window-x="-8"
     inkscape:window-height="1017"
     inkscape:window-width="1920"
     units="px"
     showgrid="false"
     inkscape:document-rotation="0"
     inkscape:current-layer="layer3"
     inkscape:document-units="mm"
     inkscape:cy="48.590296"
     inkscape:cx="100.6615"
     inkscape:zoom="4"
     inkscape:pageshadow="2"
     inkscape:pageopacity="0.0"
     borderopacity="1.0"
     bordercolor="#666666"
     pagecolor="#ffffff"
     id="base" />
  <metadata
     id="metadata852">
    <rdf:RDF>
      <cc:Work
         rdf:about="">
        <dc:format>image/svg+xml</dc:format>
        <dc:type
           rdf:resource="http://purl.org/dc/dcmitype/StillImage" />
        <dc:title></dc:title>
      </cc:Work>
    </rdf:RDF>
  </metadata>
  <g
     transform="translate(-0.32127714,-9.0903225)"
     id="layer1"
     inkscape:groupmode="layer"
     inkscape:label="Layer 1">
    <rect
       y="32.78944"
       x="0.32127813"
       height="9.7328873"
       width="52.160717"
       id="rect1418-1-2"
       style="fill:#102542;fill-opacity:1;stroke-width:0.304318" />
    <rect
       y="9.0903225"
       x="0.32127714"
       height="9.7328873"
       width="52.160717"
       id="rect1418-1-6"
       style="fill:#102542;fill-opacity:1;stroke-width:0.304318" />
    <g
       style="font-size:9.1212px;line-height:1.25;font-family:sans-serif;fill:#000000;stroke-width:0.22803"
       id="text73"
       transform="matrix(1.0206122,0,0,1.1139089,-1.6037887,-1.4403267)"
       aria-label="run it down">
      <path
         id="path1160"
         style="font-weight:bold;font-family:Oxygen;fill:#ffffff;stroke-width:0.22803"
         d="m 3.540021,27.742224 v -4.894628 h 0.9798163 l 0.1514262,0.748223 q 0.4810007,-0.770492 1.3940114,-0.770492 0.1915096,0 0.3117598,0.01781 L 6.3592197,23.8185 q -0.1781485,-0.02672 -0.369658,-0.02672 -0.6457881,0 -0.9664553,0.342936 Q 4.706893,24.477652 4.706893,25.08781 v 2.654412 z" />
      <path
         id="path1162"
         style="font-weight:bold;font-family:Oxygen;fill:#ffffff;stroke-width:0.22803"
         d="m 10.630328,27.359205 q -0.583436,0.476547 -1.5365298,0.476547 -0.9530941,0 -1.5365303,-0.476547 -0.5789824,-0.476547 -0.5789824,-1.398466 v -3.113143 h 1.171326 v 3.068606 q 0,0.547807 0.2271392,0.792761 0.231593,0.244954 0.7304086,0.244954 0.4899082,0 0.7125937,-0.2405 0.227139,-0.244955 0.227139,-0.797215 v -3.068606 h 1.166872 v 3.113143 q 0,0.917465 -0.583436,1.398466 z" />
      <path
         id="path1164"
         style="font-weight:bold;font-family:Oxygen;fill:#ffffff;stroke-width:0.22803"
         d="m 12.282655,27.742224 v -4.894628 h 0.939733 l 0.129157,0.619065 q 0.748224,-0.739316 1.661234,-0.739316 0.855113,0 1.278215,0.494362 0.427557,0.489909 0.427557,1.425188 v 3.095329 h -1.171326 v -2.95281 q -0.0045,-0.592344 -0.19151,-0.886289 -0.187056,-0.293945 -0.67251,-0.293945 -0.378566,0 -0.694779,0.195963 -0.31176,0.19151 -0.454279,0.485455 -0.08462,0.347389 -0.08462,1.06889 v 2.382736 z" />
      <path
         id="path1166"
         style="font-weight:bold;font-family:Oxygen;fill:#ffffff;stroke-width:0.22803"
         d="m 20.308242,27.742224 v -4.894628 h 1.166872 v 4.894628 z m 0,-5.607222 v -0.997631 h 1.171326 v 0.997631 z" />
      <path
         id="path1168"
         style="font-weight:bold;font-family:Oxygen;fill:#ffffff;stroke-width:0.22803"
         d="m 24.641701,27.809029 q -0.498815,0 -0.832843,-0.115796 -0.329575,-0.12025 -0.516631,-0.374112 -0.187056,-0.253861 -0.267223,-0.596797 -0.07571,-0.347389 -0.07571,-0.855112 v -2.311476 h -0.801668 l 0.04454,-0.632427 0.837297,-0.07571 0.374112,-1.327206 0.712594,-0.0045 v 1.33166 h 1.215863 v 0.70814 h -1.215863 v 2.333744 q 0,0.556714 0.160333,0.792761 0.160334,0.236046 0.592344,0.236046 0.253861,0 0.543352,-0.04454 l 0.03118,0.837298 q -0.0089,0 -0.111342,0.02227 -0.09798,0.01782 -0.19151,0.03118 -0.08907,0.01781 -0.231593,0.03118 -0.142519,0.01336 -0.267223,0.01336 z" />
      <path
         id="path1170"
         style="font-weight:bold;font-family:Oxygen;fill:#ffffff;stroke-width:0.22803"
         d="m 30.493878,27.835752 q -0.957547,0 -1.505354,-0.703687 -0.547806,-0.703686 -0.547806,-1.879466 0,-1.14015 0.543353,-1.830475 0.547806,-0.694779 1.505354,-0.694779 1.042168,0 1.474178,0.739316 -0.04454,-0.436463 -0.04454,-0.841751 v -1.581067 l 1.166872,-0.07571 v 6.774094 H 32.074943 L 31.945785,27.07417 q -0.07571,0.12025 -0.142519,0.209325 -0.06235,0.08462 -0.187055,0.200417 -0.124704,0.111342 -0.271677,0.182602 -0.142519,0.0668 -0.365204,0.115796 -0.218232,0.05344 -0.485455,0.05344 z m 0.276131,-0.886289 q 1.175779,0 1.193594,-1.598882 0,-0.904103 -0.302852,-1.318298 -0.302853,-0.414195 -0.904104,-0.414195 -0.525537,0 -0.841751,0.423102 -0.31176,0.418649 -0.31176,1.238132 0,0.815029 0.31176,1.242585 0.316214,0.427556 0.855113,0.427556 z" />
      <path
         id="path1172"
         style="font-weight:bold;font-family:Oxygen;fill:#ffffff;stroke-width:0.22803"
         d="m 36.417313,26.949463 q 0.592344,0 0.890743,-0.43201 0.298398,-0.43201 0.298398,-1.238131 0,-0.815029 -0.298398,-1.242586 -0.298399,-0.427556 -0.89965,-0.427556 -0.592343,0 -0.895196,0.43201 -0.298398,0.427556 -0.298398,1.242585 0,0.801668 0.302852,1.233678 0.302852,0.43201 0.899649,0.43201 z m -0.03117,0.886289 q -1.086706,0 -1.710225,-0.703687 -0.62352,-0.703686 -0.62352,-1.852743 0,-1.184687 0.62352,-1.866105 0.623519,-0.685872 1.759215,-0.685872 1.095613,0 1.714679,0.699233 0.623519,0.694779 0.623519,1.852744 0,1.171326 -0.627973,1.866104 -0.627973,0.690326 -1.759215,0.690326 z" />
      <path
         id="path1174"
         style="font-weight:bold;font-family:Oxygen;fill:#ffffff;stroke-width:0.22803"
         d="m 40.630524,27.742224 -1.483086,-4.894628 h 1.189141 l 0.939733,3.58969 q 0.03118,-0.102435 0.507723,-1.750308 0.476547,-1.647873 0.538899,-1.839382 h 1.198048 q 0.0579,0.187055 0.512177,1.821567 0.454279,1.634512 0.489908,1.754762 l 0.966456,-3.576329 h 1.171326 l -1.532077,4.894628 h -1.162418 q -0.0579,-0.19151 -0.543353,-1.937364 -0.481001,-1.745855 -0.521084,-1.88392 -0.08907,0.325121 -0.570075,1.959633 -0.476547,1.634511 -0.55226,1.861651 z" />
      <path
         id="path1176"
         style="font-weight:bold;font-family:Oxygen;fill:#ffffff;stroke-width:0.22803"
         d="m 47.306636,27.742224 v -4.894628 h 0.939733 l 0.129157,0.619065 q 0.748224,-0.739316 1.661235,-0.739316 0.855112,0 1.278214,0.494362 0.427557,0.489909 0.427557,1.425188 v 3.095329 h -1.171326 v -2.95281 q -0.0045,-0.592344 -0.19151,-0.886289 -0.187056,-0.293945 -0.67251,-0.293945 -0.378566,0 -0.694779,0.195963 -0.31176,0.19151 -0.454278,0.485455 -0.08462,0.347389 -0.08462,1.06889 v 2.382736 z" />
    </g>
    <g
       transform="matrix(1.0662476,0,0,1.0662476,-17.822676,-6.4890846)"
       clip-path="none"
       fill="#ffffff"
       id="g67">
      <g
         id="g1724">
        <path
           id="ellipse16"
           style="fill:#ffffff"
           d="m 58.680899,17.982 a 3.9498999,3.8459001 0 0 1 -3.9499,3.8459 3.9498999,3.8459001 0 0 1 -3.9499,-3.8459 3.9498999,3.8459001 0 0 1 3.9499,-3.8459 3.9498999,3.8459001 0 0 1 3.9499,3.8459" />
        <path
           id="circle18"
           style="fill:#ffffff"
           d="m 50.081402,21.403 a 2.3624001,2.3624001 0 0 1 -2.3624,2.3624 2.3624001,2.3624001 0 0 1 -2.3624,-2.3624 2.3624001,2.3624001 0 0 1 2.3624,-2.3624 2.3624001,2.3624001 0 0 1 2.3624,2.3624" />
        <path
           id="ellipse20"
           style="fill:#ffffff"
           d="m 37.328499,22.127001 a 1.6315,1.5271 0 0 1 -1.6315,1.5271 1.6315,1.5271 0 0 1 -1.6315,-1.5271 1.6315,1.5271 0 0 1 1.6315,-1.5271 1.6315,1.5271 0 0 1 1.6315,1.5271" />
        <path
           id="ellipse22"
           style="fill:#ffffff"
           d="m 26.741599,44.577999 a 2.0316,1.9608001 0 0 1 -2.0316,1.9608 2.0316,1.9608001 0 0 1 -2.0316,-1.9608 2.0316,1.9608001 0 0 1 2.0316,-1.9608 2.0316,1.9608001 0 0 1 2.0316,1.9608" />
        <path
           id="ellipse24"
           style="fill:#ffffff"
           d="m 39.025599,40.207001 a 2.0316,1.9608001 0 0 1 -2.0316,1.9608 2.0316,1.9608001 0 0 1 -2.0316,-1.9608 2.0316,1.9608001 0 0 1 2.0316,-1.9608 2.0316,1.9608001 0 0 1 2.0316,1.9608" />
        <path
           id="ellipse26"
           style="fill:#ffffff"
           d="m 59.862301,30.025 a 1.6773,1.6064 0 0 1 -1.6773,1.6064 1.6773,1.6064 0 0 1 -1.6773,-1.6064 1.6773,1.6064 0 0 1 1.6773,-1.6064 1.6773,1.6064 0 0 1 1.6773,1.6064" />
        <path
           id="ellipse28"
           style="fill:#ffffff"
           d="m 40.396299,29.695 a 1.8663,2.5041001 0 0 1 -1.8663,2.5041 1.8663,2.5041001 0 0 1 -1.8663,-2.5041 1.8663,2.5041001 0 0 1 1.8663,-2.5041 1.8663,2.5041001 0 0 1 1.8663,2.5041" />
        <path
           d="m 34.349,21.273 4.5057,-6.3059 1.8709,3.5747 -3.7418,4.5102 z"
           fill="#ffffff"
           id="path30" />
        <path
           id="ellipse32"
           style="fill:#ffffff"
           d="m 42.370698,15.699 a 1.8677,1.5536 0 0 1 -1.8677,1.5536 1.8677,1.5536 0 0 1 -1.8677,-1.5536 1.8677,1.5536 0 0 1 1.8677,-1.5536 1.8677,1.5536 0 0 1 1.8677,1.5536" />
        <path
           d="m 41.636,14.469 7.2524,4.8783 -2.9352,3.6208 -5.2285,-4.4267 -0.95215,-1.3865 z"
           fill="#ffffff"
           id="path34" />
        <path
           d="m 37.405,27.696 5.8799,-5.7797 3.107,2.656 2.2217,2.1382 -4.8443,3.5914 z"
           fill="#ffffff"
           id="path36" />
        <path
           id="ellipse38"
           style="fill:#ffffff"
           d="m 48.970599,36.900002 a 2.0316,2.2447 0 0 1 -2.0316,2.244699 2.0316,2.2447 0 0 1 -2.0316,-2.244699 2.0316,2.2447 0 0 1 2.0316,-2.2447 2.0316,2.2447 0 0 1 2.0316,2.2447" />
        <path
           d="m 37.812,32.013 8.4572,6.2602 2.197,-2.8584 -4.7059,-5.11 -3.586,-1.8117 z"
           fill="#ffffff"
           id="path40" />
        <path
           d="m 36.302,38.348 7.1349,-2.4576 4.1158,3.1481 -10.012,3.0193 z"
           fill="#ffffff"
           id="path42" />
        <path
           id="ellipse44"
           style="fill:#ffffff"
           d="m 52.183998,29.943001 a 1.6950001,1.7363 0 0 1 -1.695,1.7363 1.6950001,1.7363 0 0 1 -1.695,-1.7363 1.6950001,1.7363 0 0 1 1.695,-1.7363 1.6950001,1.7363 0 0 1 1.695,1.7363" />
        <path
           d="m 50.384,31.676 7.8471,-0.04734 -0.12769,-3.2066 -6.1987,-0.13016 -0.95186,-1.7039 z"
           fill="#ffffff"
           id="path46" />
        <path
           d="m 50.953,26.588 -3.2204,2.2596 1.3312,2.034 2.3895,-2.7533 z"
           fill="#ffffff"
           id="path48" />
        <path
           d="m 26.087,46.018 3.7827,-3.4802 -3.8295,-2.052 -2.7829,2.7223 z"
           fill="#ffffff"
           id="path50" />
        <path
           d="m 29.87,42.538 8.5939,-7.8772 -4.1341,-3.3734 -8.2893,9.1987 0.31871,2.6084 z"
           fill="#ffffff"
           id="path52" />
        <path
           d="m 38.464,34.66 0.47403,-0.45827 c 0,0 -1.4382,-0.63142 -2.4906,-2.058 -1.0524,-1.4266 -0.81851,-2.21 -0.81851,-2.21 l -1.299,1.3528 1.1353,2.6111 z"
           fill="#ffffff"
           id="path54" />
        <path
           d="m 46.352,24.532 c 0,0 0.62012,0.62838 1.7942,0.32246 1.1741,-0.30592 1.5379,-0.66973 1.5379,-0.66973 0,0 0.52917,-0.47129 0.71934,-0.71934 0.19017,-0.24805 0.35553,-2.3978 0.35553,-2.3978 0,0 0.83509,0.50436 0.91777,1.017 0.08268,0.51263 0.17363,1.3973 0,1.7281 -0.17363,0.33073 -1.0087,1.3229 -1.1576,1.4387 -0.14883,0.11576 -1.9051,1.4591 -1.9051,1.4591 l -1.733,-0.07001 z"
           fill="#ffffff"
           id="path56" />
        <path
           d="m 46.186,24.383 c 0,0 0.30592,0.45475 1.4635,0.37207 1.1576,-0.08268 2.0174,-0.59531 2.0174,-0.59531 l 0.89297,1.141 -1.9464,1.4095 -1.4601,-0.40074 z"
           fill="#ffffff"
           id="path58" />
        <path
           d="m 50.56,25.301 c 0,0 1.1581,-0.85063 1.1581,-1.4353 0,-0.58467 0.0058,-1.333 0.0058,-1.333 L 50.806,22.32223 c 0,0 0.09354,0.64312 -0.28648,1.0524 -0.38002,0.40926 -0.85254,0.78538 -0.85254,0.78538 l -0.04783,0.71134 z"
           fill="#ffffff"
           id="path60" />
        <path
           d="m 50.56,25.301 c 0,0 1.1874,-0.79216 1.1756,-1.7802 l -0.01175,-0.98806 -0.9179,-0.21047 c 0,0 -0.22212,1.2044 -0.61969,1.4909 -0.39756,0.28648 -0.51928,0.34689 -0.51928,0.34689 l -0.08291,0.58856 z"
           fill="#ffffff"
           id="path62" />
        <path
           d="m 50.806,22.322 0.0936,-1.1284 0.78928,0.72497 0.03502,0.61388 -0.57875,0.3391 z"
           fill="#ffffff"
           id="path64" />
      </g>
    </g>
  </g>
  <g
     inkscape:label="Layer 2"
     id="layer3"
     inkscape:groupmode="layer">
    <rect
       y="11.948395"
       x="0.1264427"
       height="9.7328873"
       width="52.160717"
       id="rect1418-1"
       style="fill:#ff1654;fill-opacity:1;stroke-width:0.304318" />
  </g>
</svg>
