<?xml version="1.0" encoding="UTF-8"?>
<svg width="197.14" height="126.36" version="1.1" viewBox="0 0 52.161 33.432" xmlns="http://www.w3.org/2000/svg" xmlns:cc="http://creativecommons.org/ns#" xmlns:dc="http://purl.org/dc/elements/1.1/" xmlns:rdf="http://www.w3.org/1999/02/22-rdf-syntax-ns#">
 <metadata>
  <rdf:RDF>
   <cc:Work rdf:about="">
    <dc:format>image/svg+xml</dc:format>
    <dc:type rdf:resource="http://purl.org/dc/dcmitype/StillImage"/>
    <dc:title/>
   </cc:Work>
  </rdf:RDF>
 </metadata>
 <g transform="translate(-.32128 -9.0903)">
  <rect x=".32128" y="32.789" width="52.161" height="9.7329" fill="#102542" stroke-width=".30432"/>
  <rect x=".32128" y="9.0903" width="52.161" height="9.7329" fill="#102542" stroke-width=".30432"/>
  <g transform="matrix(1.0206 0 0 1.1139 -1.6038 -1.4403)" fill="#fff" stroke-width=".22803" aria-label="run it down">
   <path d="m3.54 27.742v-4.8946h0.97982l0.15143 0.74822q0.481-0.77049 1.394-0.77049 0.19151 0 0.31176 0.01781l-0.017815 0.97536q-0.17815-0.02672-0.36966-0.02672-0.64579 0-0.96646 0.34294-0.31621 0.34294-0.31621 0.95309v2.6544z"/>
   <path d="m10.63 27.359q-0.58344 0.47655-1.5365 0.47655-0.95309 0-1.5365-0.47655-0.57898-0.47655-0.57898-1.3985v-3.1131h1.1713v3.0686q0 0.54781 0.22714 0.79276 0.23159 0.24495 0.73041 0.24495 0.48991 0 0.71259-0.2405 0.22714-0.24496 0.22714-0.79722v-3.0686h1.1669v3.1131q0 0.91746-0.58344 1.3985z"/>
   <path d="m12.283 27.742v-4.8946h0.93973l0.12916 0.61906q0.74822-0.73932 1.6612-0.73932 0.85511 0 1.2782 0.49436 0.42756 0.48991 0.42756 1.4252v3.0953h-1.1713v-2.9528q-0.0045-0.59234-0.19151-0.88629-0.18706-0.29394-0.67251-0.29394-0.37857 0-0.69478 0.19596-0.31176 0.19151-0.45428 0.48546-0.08462 0.34739-0.08462 1.0689v2.3827z"/>
   <path d="m20.308 27.742v-4.8946h1.1669v4.8946zm0-5.6072v-0.99763h1.1713v0.99763z"/>
   <path d="m24.642 27.809q-0.49882 0-0.83284-0.1158-0.32958-0.12025-0.51663-0.37411-0.18706-0.25386-0.26722-0.5968-0.07571-0.34739-0.07571-0.85511v-2.3115h-0.80167l0.04454-0.63243 0.8373-0.07571 0.37411-1.3272 0.71259-0.0045v1.3317h1.2159v0.70814h-1.2159v2.3337q0 0.55671 0.16033 0.79276 0.16033 0.23605 0.59234 0.23605 0.25386 0 0.54335-0.04454l0.03118 0.8373q-0.0089 0-0.11134 0.02227-0.09798 0.01782-0.19151 0.03118-0.08907 0.01781-0.23159 0.03118-0.14252 0.01336-0.26722 0.01336z"/>
   <path d="m30.494 27.836q-0.95755 0-1.5054-0.70369-0.54781-0.70369-0.54781-1.8795 0-1.1402 0.54335-1.8305 0.54781-0.69478 1.5054-0.69478 1.0422 0 1.4742 0.73932-0.04454-0.43646-0.04454-0.84175v-1.5811l1.1669-0.07571v6.7741h-1.011l-0.12916-0.66806q-0.07571 0.12025-0.14252 0.20932-0.06235 0.08462-0.18706 0.20042-0.1247 0.11134-0.27168 0.1826-0.14252 0.0668-0.3652 0.1158-0.21823 0.05344-0.48546 0.05344zm0.27613-0.88629q1.1758 0 1.1936-1.5989 0-0.9041-0.30285-1.3183-0.30285-0.4142-0.9041-0.4142-0.52554 0-0.84175 0.4231-0.31176 0.41865-0.31176 1.2381 0 0.81503 0.31176 1.2426 0.31621 0.42756 0.85511 0.42756z"/>
   <path d="m36.417 26.949q0.59234 0 0.89074-0.43201 0.2984-0.43201 0.2984-1.2381 0-0.81503-0.2984-1.2426-0.2984-0.42756-0.89965-0.42756-0.59234 0-0.8952 0.43201-0.2984 0.42756-0.2984 1.2426 0 0.80167 0.30285 1.2337t0.89965 0.43201zm-0.03117 0.88629q-1.0867 0-1.7102-0.70369-0.62352-0.70369-0.62352-1.8527 0-1.1847 0.62352-1.8661 0.62352-0.68587 1.7592-0.68587 1.0956 0 1.7147 0.69923 0.62352 0.69478 0.62352 1.8527 0 1.1713-0.62797 1.8661-0.62797 0.69033-1.7592 0.69033z"/>
   <path d="m40.631 27.742-1.4831-4.8946h1.1891l0.93973 3.5897q0.03118-0.10244 0.50772-1.7503 0.47655-1.6479 0.5389-1.8394h1.198q0.0579 0.18706 0.51218 1.8216 0.45428 1.6345 0.48991 1.7548l0.96646-3.5763h1.1713l-1.5321 4.8946h-1.1624q-0.0579-0.19151-0.54335-1.9374-0.481-1.7459-0.52108-1.8839-0.08907 0.32512-0.57008 1.9596-0.47655 1.6345-0.55226 1.8617z"/>
   <path d="m47.307 27.742v-4.8946h0.93973l0.12916 0.61906q0.74822-0.73932 1.6612-0.73932 0.85511 0 1.2782 0.49436 0.42756 0.48991 0.42756 1.4252v3.0953h-1.1713v-2.9528q-0.0045-0.59234-0.19151-0.88629-0.18706-0.29394-0.67251-0.29394-0.37857 0-0.69478 0.19596-0.31176 0.19151-0.45428 0.48546-0.08462 0.34739-0.08462 1.0689v2.3827z"/>
  </g>
  <g transform="matrix(1.0662 0 0 1.0662 -17.823 -6.4891)" fill="#fff">
   <g fill="#fff">
    <path d="m58.681 17.982a3.9499 3.8459 0 0 1-3.9499 3.8459 3.9499 3.8459 0 0 1-3.9499-3.8459 3.9499 3.8459 0 0 1 3.9499-3.8459 3.9499 3.8459 0 0 1 3.9499 3.8459"/>
    <path d="m50.081 21.403a2.3624 2.3624 0 0 1-2.3624 2.3624 2.3624 2.3624 0 0 1-2.3624-2.3624 2.3624 2.3624 0 0 1 2.3624-2.3624 2.3624 2.3624 0 0 1 2.3624 2.3624"/>
    <path d="m37.328 22.127a1.6315 1.5271 0 0 1-1.6315 1.5271 1.6315 1.5271 0 0 1-1.6315-1.5271 1.6315 1.5271 0 0 1 1.6315-1.5271 1.6315 1.5271 0 0 1 1.6315 1.5271"/>
    <path d="m26.742 44.578a2.0316 1.9608 0 0 1-2.0316 1.9608 2.0316 1.9608 0 0 1-2.0316-1.9608 2.0316 1.9608 0 0 1 2.0316-1.9608 2.0316 1.9608 0 0 1 2.0316 1.9608"/>
    <path d="m39.026 40.207a2.0316 1.9608 0 0 1-2.0316 1.9608 2.0316 1.9608 0 0 1-2.0316-1.9608 2.0316 1.9608 0 0 1 2.0316-1.9608 2.0316 1.9608 0 0 1 2.0316 1.9608"/>
    <path d="m59.862 30.025a1.6773 1.6064 0 0 1-1.6773 1.6064 1.6773 1.6064 0 0 1-1.6773-1.6064 1.6773 1.6064 0 0 1 1.6773-1.6064 1.6773 1.6064 0 0 1 1.6773 1.6064"/>
    <path d="m40.396 29.695a1.8663 2.5041 0 0 1-1.8663 2.5041 1.8663 2.5041 0 0 1-1.8663-2.5041 1.8663 2.5041 0 0 1 1.8663-2.5041 1.8663 2.5041 0 0 1 1.8663 2.5041"/>
    <path d="m34.349 21.273 4.5057-6.3059 1.8709 3.5747-3.7418 4.5102z"/>
    <path d="m42.371 15.699a1.8677 1.5536 0 0 1-1.8677 1.5536 1.8677 1.5536 0 0 1-1.8677-1.5536 1.8677 1.5536 0 0 1 1.8677-1.5536 1.8677 1.5536 0 0 1 1.8677 1.5536"/>
    <path d="m41.636 14.469 7.2524 4.8783-2.9352 3.6208-5.2285-4.4267-0.95215-1.3865z"/>
    <path d="m37.405 27.696 5.8799-5.7797 3.107 2.656 2.2217 2.1382-4.8443 3.5914z"/>
    <path d="m48.971 36.9a2.0316 2.2447 0 0 1-2.0316 2.2447 2.0316 2.2447 0 0 1-2.0316-2.2447 2.0316 2.2447 0 0 1 2.0316-2.2447 2.0316 2.2447 0 0 1 2.0316 2.2447"/>
    <path d="m37.812 32.013 8.4572 6.2602 2.197-2.8584-4.7059-5.11-3.586-1.8117z"/>
    <path d="m36.302 38.348 7.1349-2.4576 4.1158 3.1481-10.012 3.0193z"/>
    <path d="m52.184 29.943a1.695 1.7363 0 0 1-1.695 1.7363 1.695 1.7363 0 0 1-1.695-1.7363 1.695 1.7363 0 0 1 1.695-1.7363 1.695 1.7363 0 0 1 1.695 1.7363"/>
    <path d="m50.384 31.676 7.8471-0.04734-0.12769-3.2066-6.1987-0.13016-0.95186-1.7039z"/>
    <path d="m50.953 26.588-3.2204 2.2596 1.3312 2.034 2.3895-2.7533z"/>
    <path d="m26.087 46.018 3.7827-3.4802-3.8295-2.052-2.7829 2.7223z"/>
    <path d="m29.87 42.538 8.5939-7.8772-4.1341-3.3734-8.2893 9.1987 0.31871 2.6084z"/>
    <path d="m38.464 34.66 0.47403-0.45827s-1.4382-0.63142-2.4906-2.058c-1.0524-1.4266-0.81851-2.21-0.81851-2.21l-1.299 1.3528 1.1353 2.6111z"/>
    <path d="m46.352 24.532s0.62012 0.62838 1.7942 0.32246c1.1741-0.30592 1.5379-0.66973 1.5379-0.66973s0.52917-0.47129 0.71934-0.71934 0.35553-2.3978 0.35553-2.3978 0.83509 0.50436 0.91777 1.017c0.08268 0.51263 0.17363 1.3973 0 1.7281-0.17363 0.33073-1.0087 1.3229-1.1576 1.4387-0.14883 0.11576-1.9051 1.4591-1.9051 1.4591l-1.733-0.07001z"/>
    <path d="m46.186 24.383s0.30592 0.45475 1.4635 0.37207c1.1576-0.08268 2.0174-0.59531 2.0174-0.59531l0.89297 1.141-1.9464 1.4095-1.4601-0.40074z"/>
    <path d="m50.56 25.301s1.1581-0.85063 1.1581-1.4353 0.0058-1.333 0.0058-1.333l-0.9179-0.21047s0.09354 0.64312-0.28648 1.0524c-0.38002 0.40926-0.85254 0.78538-0.85254 0.78538l-0.04783 0.71134z"/>
    <path d="m50.56 25.301s1.1874-0.79216 1.1756-1.7802l-0.01175-0.98806-0.9179-0.21047s-0.22212 1.2044-0.61969 1.4909c-0.39756 0.28648-0.51928 0.34689-0.51928 0.34689l-0.08291 0.58856z"/>
    <path d="m50.806 22.322 0.0936-1.1284 0.78928 0.72497 0.03502 0.61388-0.57875 0.3391z"/>
   </g>
  </g>
 </g>
 <rect x=".12644" y="11.948" width="52.161" height="9.7329" fill="#ff1654" stroke-width=".30432"/>
 <g transform="matrix(1.0206 0 0 1.1139 -1.9251 -10.531)" fill="#fff" stroke-width=".22803" aria-label="run it down">
  <path d="m3.54 27.742v-4.8946h0.97982l0.15143 0.74822q0.481-0.77049 1.394-0.77049 0.19151 0 0.31176 0.01781l-0.017815 0.97536q-0.17815-0.02672-0.36966-0.02672-0.64579 0-0.96646 0.34294-0.31621 0.34294-0.31621 0.95309v2.6544z"/>
  <path d="m10.63 27.359q-0.58344 0.47655-1.5365 0.47655-0.95309 0-1.5365-0.47655-0.57898-0.47655-0.57898-1.3985v-3.1131h1.1713v3.0686q0 0.54781 0.22714 0.79276 0.23159 0.24495 0.73041 0.24495 0.48991 0 0.71259-0.2405 0.22714-0.24496 0.22714-0.79722v-3.0686h1.1669v3.1131q0 0.91746-0.58344 1.3985z"/>
  <path d="m12.283 27.742v-4.8946h0.93973l0.12916 0.61906q0.74822-0.73932 1.6612-0.73932 0.85511 0 1.2782 0.49436 0.42756 0.48991 0.42756 1.4252v3.0953h-1.1713v-2.9528q-0.0045-0.59234-0.19151-0.88629-0.18706-0.29394-0.67251-0.29394-0.37857 0-0.69478 0.19596-0.31176 0.19151-0.45428 0.48546-0.08462 0.34739-0.08462 1.0689v2.3827z"/>
  <path d="m20.308 27.742v-4.8946h1.1669v4.8946zm0-5.6072v-0.99763h1.1713v0.99763z"/>
  <path d="m24.642 27.809q-0.49882 0-0.83284-0.1158-0.32958-0.12025-0.51663-0.37411-0.18706-0.25386-0.26722-0.5968-0.07571-0.34739-0.07571-0.85511v-2.3115h-0.80167l0.04454-0.63243 0.8373-0.07571 0.37411-1.3272 0.71259-0.0045v1.3317h1.2159v0.70814h-1.2159v2.3337q0 0.55671 0.16033 0.79276 0.16033 0.23605 0.59234 0.23605 0.25386 0 0.54335-0.04454l0.03118 0.8373q-0.0089 0-0.11134 0.02227-0.09798 0.01782-0.19151 0.03118-0.08907 0.01781-0.23159 0.03118-0.14252 0.01336-0.26722 0.01336z"/>
  <path d="m30.494 27.836q-0.95755 0-1.5054-0.70369-0.54781-0.70369-0.54781-1.8795 0-1.1402 0.54335-1.8305 0.54781-0.69478 1.5054-0.69478 1.0422 0 1.4742 0.73932-0.04454-0.43646-0.04454-0.84175v-1.5811l1.1669-0.07571v6.7741h-1.011l-0.12916-0.66806q-0.07571 0.12025-0.14252 0.20932-0.06235 0.08462-0.18706 0.20042-0.1247 0.11134-0.27168 0.1826-0.14252 0.0668-0.3652 0.1158-0.21823 0.05344-0.48546 0.05344zm0.27613-0.88629q1.1758 0 1.1936-1.5989 0-0.9041-0.30285-1.3183-0.30285-0.4142-0.9041-0.4142-0.52554 0-0.84175 0.4231-0.31176 0.41865-0.31176 1.2381 0 0.81503 0.31176 1.2426 0.31621 0.42756 0.85511 0.42756z"/>
  <path d="m36.417 26.949q0.59234 0 0.89074-0.43201 0.2984-0.43201 0.2984-1.2381 0-0.81503-0.2984-1.2426-0.2984-0.42756-0.89965-0.42756-0.59234 0-0.8952 0.43201-0.2984 0.42756-0.2984 1.2426 0 0.80167 0.30285 1.2337t0.89965 0.43201zm-0.03117 0.88629q-1.0867 0-1.7102-0.70369-0.62352-0.70369-0.62352-1.8527 0-1.1847 0.62352-1.8661 0.62352-0.68587 1.7592-0.68587 1.0956 0 1.7147 0.69923 0.62352 0.69478 0.62352 1.8527 0 1.1713-0.62797 1.8661-0.62797 0.69033-1.7592 0.69033z"/>
  <path d="m40.631 27.742-1.4831-4.8946h1.1891l0.93973 3.5897q0.03118-0.10244 0.50772-1.7503 0.47655-1.6479 0.5389-1.8394h1.198q0.0579 0.18706 0.51218 1.8216 0.45428 1.6345 0.48991 1.7548l0.96646-3.5763h1.1713l-1.5321 4.8946h-1.1624q-0.0579-0.19151-0.54335-1.9374-0.481-1.7459-0.52108-1.8839-0.08907 0.32512-0.57008 1.9596-0.47655 1.6345-0.55226 1.8617z"/>
  <path d="m47.307 27.742v-4.8946h0.93973l0.12916 0.61906q0.74822-0.73932 1.6612-0.73932 0.85511 0 1.2782 0.49436 0.42756 0.48991 0.42756 1.4252v3.0953h-1.1713v-2.9528q-0.0045-0.59234-0.19151-0.88629-0.18706-0.29394-0.67251-0.29394-0.37857 0-0.69478 0.19596-0.31176 0.19151-0.45428 0.48546-0.08462 0.34739-0.08462 1.0689v2.3827z"/>
 </g>
</svg>
